<svg width="260" height="105" viewBox="0 0 260 105" fill="none" xmlns="http://www.w3.org/2000/svg">
<path d="M145.656 0.429378C164.525 1.45271 182.333 4.31019 198.717 8.32347C215.542 12.4448 231.751 17.2959 242.327 24.1091C253.019 30.9972 257.431 39.1799 259.276 47.3355C261.121 55.495 259.579 63.7412 253.04 71.4753C246.443 79.2791 236.516 86.7726 221.383 92.1593C206.518 97.4504 186.986 99.532 168.11 101.707C149.806 103.816 131.15 105.726 112.306 104.727C93.4252 103.727 76.348 100.033 60.014 95.9813C43.2419 91.8211 25.9338 87.5095 15.3877 80.6872C4.75231 73.8072 1.40247 65.4661 0.23282 57.3087C-0.916613 49.2923 2.23655 41.353 8.66153 33.7771C15.1518 26.1243 23.5196 18.5474 37.8064 13.0047C52.029 7.4868 70.7818 4.5884 89.5329 2.40203C107.836 0.267887 126.804 -0.593063 145.656 0.429378Z" fill="#FFFFFA" fill-opacity="0.7"/>
</svg>
