<svg width="372" height="85" viewBox="0 0 372 85" fill="none" xmlns="http://www.w3.org/2000/svg">
<path d="M0.9 12.1L7.7 11.5C7.96667 13.5667 8.2 16 8.4 18.8C8.6 21.6 8.73333 24.5 8.8 27.5C8.93333 30.4333 9 33.2333 9 35.9V65.8C8.66667 65.9333 8.13333 66.0667 7.4 66.2C6.73333 66.4 6.03333 66.5 5.3 66.5C3.83333 66.5 2.73333 66.2333 2 65.7C1.26667 65.1 0.9 64.1667 0.9 62.9V12.1ZM49.1 59.1L42.2 59.7C41.5333 54.1 41.1333 48.4 41 42.6C40.9333 36.7333 40.9 31.0667 40.9 25.6V5.4C41.3 5.26666 41.8333 5.13333 42.5 5C43.1667 4.8 43.9 4.7 44.7 4.7C46.1667 4.7 47.2667 5 48 5.6C48.7333 6.13333 49.1 7.03333 49.1 8.3V59.1ZM49.1 56.1V64.9C48.5 65.3667 47.7333 65.7667 46.8 66.1C45.8667 66.4333 44.8333 66.6 43.7 66.6C42.1 66.6 40.7333 66.3 39.6 65.7C38.4667 65.0333 37.4333 63.8667 36.5 62.2L17.5 30.2C16.5 28.4 15.4 26.4333 14.2 24.3C13 22.1 11.8667 20.0333 10.8 18.1C9.73333 16.1 8.9 14.4667 8.3 13.2L0.9 15.1V6.4C1.43333 5.86666 2.16667 5.43333 3.1 5.1C4.1 4.76666 5.16667 4.6 6.3 4.6C7.9 4.6 9.26667 4.93333 10.4 5.6C11.5333 6.2 12.5667 7.33333 13.5 8.99999L32.6 41C33.6667 42.8 34.7667 44.8 35.9 47C37.1 49.1333 38.2 51.2 39.2 53.2C40.2 55.1333 41 56.7333 41.6 58L49.1 56.1ZM108.416 42.9C108.416 47.8333 107.482 52.1333 105.616 55.8C103.749 59.4667 101.116 62.3 97.7156 64.3C94.3156 66.3 90.3156 67.3 85.7156 67.3C81.1156 67.3 77.0823 66.3 73.6156 64.3C70.2156 62.3 67.5823 59.4667 65.7156 55.8C63.849 52.1333 62.9156 47.8333 62.9156 42.9C62.9156 37.9 63.849 33.6 65.7156 30C67.649 26.3333 70.3156 23.5 73.7156 21.5C77.1823 19.5 81.1823 18.5 85.7156 18.5C90.249 18.5 94.2156 19.5 97.6156 21.5C101.016 23.5 103.649 26.3333 105.516 30C107.449 33.6 108.416 37.9 108.416 42.9ZM85.7156 25.1C81.249 25.1 77.6823 26.7 75.0156 29.9C72.4156 33.0333 71.1156 37.3667 71.1156 42.9C71.1156 48.5 72.3823 52.8667 74.9156 56C77.5156 59.1333 81.1156 60.7 85.7156 60.7C90.249 60.7 93.7823 59.1333 96.3156 56C98.9156 52.8 100.216 48.4333 100.216 42.9C100.216 37.3667 98.9156 33.0333 96.3156 29.9C93.7823 26.7 90.249 25.1 85.7156 25.1ZM163.689 42.9C163.689 47.8333 162.756 52.1333 160.889 55.8C159.022 59.4667 156.389 62.3 152.989 64.3C149.589 66.3 145.589 67.3 140.989 67.3C136.389 67.3 132.356 66.3 128.889 64.3C125.489 62.3 122.856 59.4667 120.989 55.8C119.122 52.1333 118.189 47.8333 118.189 42.9C118.189 37.9 119.122 33.6 120.989 30C122.922 26.3333 125.589 23.5 128.989 21.5C132.456 19.5 136.456 18.5 140.989 18.5C145.522 18.5 149.489 19.5 152.889 21.5C156.289 23.5 158.922 26.3333 160.789 30C162.722 33.6 163.689 37.9 163.689 42.9ZM140.989 25.1C136.522 25.1 132.956 26.7 130.289 29.9C127.689 33.0333 126.389 37.3667 126.389 42.9C126.389 48.5 127.656 52.8667 130.189 56C132.789 59.1333 136.389 60.7 140.989 60.7C145.522 60.7 149.056 59.1333 151.589 56C154.189 52.8 155.489 48.4333 155.489 42.9C155.489 37.3667 154.189 33.0333 151.589 29.9C149.056 26.7 145.522 25.1 140.989 25.1ZM188.363 44.9L183.363 41L206.163 18.9C207.763 18.9667 208.996 19.3667 209.863 20.1C210.796 20.7667 211.263 21.6667 211.263 22.8C211.263 23.7333 210.963 24.5667 210.363 25.3C209.829 26.0333 209.029 26.8333 207.963 27.7L188.363 44.9ZM183.163 42.3L188.763 39L214.163 61.8C214.029 63.2667 213.563 64.4333 212.763 65.3C212.029 66.1667 211.029 66.6 209.763 66.6C208.763 66.6 207.829 66.3333 206.963 65.8C206.163 65.2667 205.329 64.5667 204.463 63.7L183.163 42.3ZM176.263 39.2L184.263 40.4V65.8C183.929 65.9333 183.429 66.0667 182.763 66.2C182.096 66.4 181.363 66.5 180.563 66.5C179.163 66.5 178.096 66.2333 177.363 65.7C176.629 65.1 176.263 64.1667 176.263 62.9V39.2ZM184.263 44.3L176.263 43.1V1.2C176.596 1.06666 177.096 0.933331 177.763 0.799999C178.496 0.599998 179.263 0.499997 180.063 0.499997C181.463 0.499997 182.496 0.799997 183.163 1.4C183.896 1.93333 184.263 2.83333 184.263 4.1V44.3Z" fill="#1AAE5E"/>
<path d="M259.293 31.1V37.7H231.793V31.1H259.293ZM247.793 37.7L250.993 32.7C255.526 32.7 259.293 33.4667 262.293 35C265.293 36.4667 267.526 38.4333 268.993 40.9C270.526 43.3667 271.293 46.1333 271.293 49.2C271.293 55.2667 269.093 59.7667 264.693 62.7C260.36 65.6333 254.16 67.1 246.093 67.1C244.293 67.1 242.493 67.0333 240.693 66.9C238.893 66.8333 237.126 66.6667 235.393 66.4C233.66 66.1333 231.993 65.8 230.393 65.4C227.593 64.6 226.193 63.0667 226.193 60.8V9.6C226.193 8.53333 226.46 7.7 226.993 7.1C227.593 6.5 228.426 6.06666 229.493 5.79999C231.76 5.13333 234.16 4.7 236.693 4.5C239.293 4.23333 242.06 4.1 244.993 4.1C252.526 4.1 258.393 5.46667 262.593 8.2C266.793 10.8667 268.893 14.9667 268.893 20.5C268.893 23.3 268.193 25.9 266.793 28.3C265.46 30.6333 263.26 32.5333 260.193 34C257.193 35.4 253.16 36.1 248.093 36.1L247.193 31.1C251.593 31.1 254.926 30.2 257.193 28.4C259.46 26.5333 260.593 23.9667 260.593 20.7C260.593 17.3667 259.26 14.9 256.593 13.3C253.993 11.6333 250.126 10.8 244.993 10.8C242.726 10.8 240.726 10.9 238.993 11.1C237.26 11.2333 235.66 11.4333 234.193 11.7V59.3C235.793 59.6333 237.626 59.9 239.693 60.1C241.826 60.3 243.96 60.4 246.093 60.4C251.626 60.4 255.826 59.4667 258.693 57.6C261.56 55.7333 262.993 52.8667 262.993 49C262.993 45.5333 261.693 42.8 259.093 40.8C256.56 38.7333 252.793 37.7 247.793 37.7ZM301.156 60.8C303.956 60.8 306.256 60.5333 308.056 60C309.923 59.4 311.256 58.8333 312.056 58.3V43.8L299.656 45.1C296.19 45.3667 293.623 46.1333 291.956 47.4C290.29 48.6667 289.456 50.5 289.456 52.9C289.456 55.3667 290.423 57.3 292.356 58.7C294.356 60.1 297.29 60.8 301.156 60.8ZM301.056 18.5C306.856 18.5 311.456 19.8 314.856 22.4C318.256 25 319.956 29.1 319.956 34.7V58.4C319.956 59.8667 319.656 61 319.056 61.8C318.523 62.5333 317.69 63.2333 316.556 63.9C314.956 64.7667 312.823 65.5667 310.156 66.3C307.49 67.0333 304.49 67.4 301.156 67.4C294.89 67.4 290.023 66.1667 286.556 63.7C283.156 61.2333 281.456 57.6667 281.456 53C281.456 48.6667 282.89 45.3667 285.756 43.1C288.69 40.7667 292.723 39.3667 297.856 38.9L312.056 37.5V34.7C312.056 31.3667 311.056 28.9333 309.056 27.4C307.056 25.8667 304.356 25.1 300.956 25.1C298.223 25.1 295.59 25.5 293.056 26.3C290.59 27.1 288.39 28 286.456 29C285.923 28.5333 285.423 28 284.956 27.4C284.556 26.7333 284.356 26.0667 284.356 25.4C284.356 23.6667 285.323 22.3333 287.256 21.4C289.056 20.4667 291.123 19.7667 293.456 19.3C295.856 18.7667 298.39 18.5 301.056 18.5ZM342.787 55.7C341.653 53.5667 340.287 50.7 338.687 47.1C337.087 43.4333 335.42 39.3667 333.687 34.9C332.02 30.3667 330.42 25.7667 328.887 21.1C329.353 20.4333 329.953 19.9 330.687 19.5C331.487 19.1 332.32 18.9 333.187 18.9C334.32 18.9 335.253 19.2 335.987 19.8C336.72 20.4 337.32 21.4 337.787 22.8C339.787 28.4 341.887 33.9667 344.087 39.5C346.287 45.0333 348.72 50.7667 351.387 56.7H351.787C353.187 53.9 354.653 50.4 356.187 46.2C357.72 42 359.187 37.5667 360.587 32.9C361.987 28.2333 363.153 23.8333 364.087 19.7C364.553 19.5 365.053 19.3333 365.587 19.2C366.187 19 366.82 18.9 367.487 18.9C368.62 18.9 369.553 19.2 370.287 19.8C371.02 20.3333 371.387 21.1667 371.387 22.3C371.387 23.3667 371.087 25.1667 370.487 27.7C369.887 30.1667 369.053 33.0667 367.987 36.4C366.987 39.6667 365.787 43.1667 364.387 46.9C363.053 50.5667 361.587 54.2 359.987 57.8C358.453 61.3333 356.887 64.5333 355.287 67.4C352.22 73.0667 349.42 77.4 346.887 80.4C344.353 83.4667 342.02 85 339.887 85C338.353 85 337.153 84.6 336.287 83.8C335.487 83 334.987 82.0667 334.787 81C336.253 79.7333 337.887 78.0333 339.687 75.9C341.553 73.8333 343.32 71.5667 344.987 69.1C346.72 66.7 348.12 64.4 349.187 62.2C348.053 61.8667 346.987 61.2667 345.987 60.4C345.053 59.5333 343.987 57.9667 342.787 55.7Z" fill="black"/>
</svg>
