<svg width="1113" height="254" viewBox="0 0 1113 254" fill="none" xmlns="http://www.w3.org/2000/svg">
<path d="M0.7 35.3L21.1 33.5C21.9 39.7 22.6 47 23.2 55.4C23.8 63.8 24.2 72.5 24.4 81.5C24.8 90.3 25 98.7 25 106.7V196.4C24 196.8 22.4 197.2 20.2 197.6C18.2 198.2 16.1 198.5 13.9 198.5C9.5 198.5 6.2 197.7 4 196.1C1.8 194.3 0.7 191.5 0.7 187.7V35.3ZM145.3 176.3L124.6 178.1C122.6 161.3 121.4 144.2 121 126.8C120.8 109.2 120.7 92.2 120.7 75.8V15.2C121.9 14.8 123.5 14.4 125.5 14C127.5 13.4 129.7 13.1 132.1 13.1C136.5 13.1 139.8 14 142 15.8C144.2 17.4 145.3 20.1 145.3 23.9V176.3ZM145.3 167.3V193.7C143.5 195.1 141.2 196.3 138.4 197.3C135.6 198.3 132.5 198.8 129.1 198.8C124.3 198.8 120.2 197.9 116.8 196.1C113.4 194.1 110.3 190.6 107.5 185.6L50.5 89.6C47.5 84.2 44.2 78.3 40.6 71.9C37 65.3 33.6 59.1 30.4 53.3C27.2 47.3 24.7 42.4 22.9 38.6L0.7 44.3V18.2C2.3 16.6 4.5 15.3 7.3 14.3C10.3 13.3 13.5 12.8 16.9 12.8C21.7 12.8 25.8 13.8 29.2 15.8C32.6 17.6 35.7 21 38.5 26L95.8 122C99 127.4 102.3 133.4 105.7 140C109.3 146.4 112.6 152.6 115.6 158.6C118.6 164.4 121 169.2 122.8 173L145.3 167.3ZM323.247 127.7C323.247 142.5 320.447 155.4 314.847 166.4C309.247 177.4 301.347 185.9 291.147 191.9C280.947 197.9 268.947 200.9 255.147 200.9C241.347 200.9 229.247 197.9 218.847 191.9C208.647 185.9 200.747 177.4 195.147 166.4C189.547 155.4 186.747 142.5 186.747 127.7C186.747 112.7 189.547 99.8 195.147 89C200.947 78 208.947 69.5 219.147 63.5C229.547 57.5 241.547 54.5 255.147 54.5C268.747 54.5 280.647 57.5 290.847 63.5C301.047 69.5 308.947 78 314.547 89C320.347 99.8 323.247 112.7 323.247 127.7ZM255.147 74.3C241.747 74.3 231.047 79.1 223.047 88.7C215.247 98.1 211.347 111.1 211.347 127.7C211.347 144.5 215.147 157.6 222.747 167C230.547 176.4 241.347 181.1 255.147 181.1C268.747 181.1 279.347 176.4 286.947 167C294.747 157.4 298.647 144.3 298.647 127.7C298.647 111.1 294.747 98.1 286.947 88.7C279.347 79.1 268.747 74.3 255.147 74.3ZM489.067 127.7C489.067 142.5 486.267 155.4 480.667 166.4C475.067 177.4 467.167 185.9 456.967 191.9C446.767 197.9 434.767 200.9 420.967 200.9C407.167 200.9 395.067 197.9 384.667 191.9C374.467 185.9 366.567 177.4 360.967 166.4C355.367 155.4 352.567 142.5 352.567 127.7C352.567 112.7 355.367 99.8 360.967 89C366.767 78 374.767 69.5 384.967 63.5C395.367 57.5 407.367 54.5 420.967 54.5C434.567 54.5 446.467 57.5 456.667 63.5C466.867 69.5 474.767 78 480.367 89C486.167 99.8 489.067 112.7 489.067 127.7ZM420.967 74.3C407.567 74.3 396.867 79.1 388.867 88.7C381.067 98.1 377.167 111.1 377.167 127.7C377.167 144.5 380.967 157.6 388.567 167C396.367 176.4 407.167 181.1 420.967 181.1C434.567 181.1 445.167 176.4 452.767 167C460.567 157.4 464.467 144.3 464.467 127.7C464.467 111.1 460.567 98.1 452.767 88.7C445.167 79.1 434.567 74.3 420.967 74.3ZM563.088 133.7L548.088 122L616.488 55.7C621.288 55.9 624.988 57.1 627.588 59.3C630.388 61.3 631.788 64 631.788 67.4C631.788 70.2 630.888 72.7 629.088 74.9C627.488 77.1 625.088 79.5 621.888 82.1L563.088 133.7ZM547.488 125.9L564.288 116L640.488 184.4C640.088 188.8 638.688 192.3 636.288 194.9C634.088 197.5 631.088 198.8 627.288 198.8C624.288 198.8 621.488 198 618.888 196.4C616.488 194.8 613.988 192.7 611.388 190.1L547.488 125.9ZM526.788 116.6L550.788 120.2V196.4C549.788 196.8 548.288 197.2 546.288 197.6C544.288 198.2 542.088 198.5 539.688 198.5C535.488 198.5 532.288 197.7 530.088 196.1C527.888 194.3 526.788 191.5 526.788 187.7V116.6ZM550.788 131.9L526.788 128.3V2.6C527.788 2.19999 529.288 1.79999 531.288 1.4C533.488 0.799993 535.788 0.499991 538.188 0.499991C542.388 0.499991 545.488 1.39999 547.488 3.19999C549.688 4.79999 550.788 7.5 550.788 11.3V131.9Z" fill="#1AAE5E"/>
<path d="M775.879 92.3V112.1H693.379V92.3H775.879ZM741.379 112.1L750.979 97.1C764.579 97.1 775.879 99.4 784.879 104C793.879 108.4 800.579 114.3 804.979 121.7C809.579 129.1 811.879 137.4 811.879 146.6C811.879 164.8 805.279 178.3 792.079 187.1C779.079 195.9 760.479 200.3 736.279 200.3C730.879 200.3 725.479 200.1 720.079 199.7C714.679 199.5 709.379 199 704.179 198.2C698.979 197.4 693.979 196.4 689.179 195.2C680.779 192.8 676.579 188.2 676.579 181.4V27.8C676.579 24.6 677.379 22.1 678.979 20.3C680.779 18.5 683.279 17.2 686.479 16.4C693.279 14.4 700.479 13.1 708.079 12.5C715.879 11.7 724.179 11.3 732.979 11.3C755.579 11.3 773.179 15.4 785.779 23.6C798.379 31.6 804.679 43.9 804.679 60.5C804.679 68.9 802.579 76.7 798.379 83.9C794.379 90.9 787.779 96.6 778.579 101C769.579 105.2 757.479 107.3 742.279 107.3L739.579 92.3C752.779 92.3 762.779 89.6 769.579 84.2C776.379 78.6 779.779 70.9 779.779 61.1C779.779 51.1 775.779 43.7 767.779 38.9C759.979 33.9 748.379 31.4 732.979 31.4C726.179 31.4 720.179 31.7 714.979 32.3C709.779 32.7 704.979 33.3 700.579 34.1V176.9C705.379 177.9 710.879 178.7 717.079 179.3C723.479 179.9 729.879 180.2 736.279 180.2C752.879 180.2 765.479 177.4 774.079 171.8C782.679 166.2 786.979 157.6 786.979 146C786.979 135.6 783.079 127.4 775.279 121.4C767.679 115.2 756.379 112.1 741.379 112.1ZM901.469 181.4C909.869 181.4 916.769 180.6 922.169 179C927.769 177.2 931.769 175.5 934.169 173.9V130.4L896.969 134.3C886.569 135.1 878.869 137.4 873.869 141.2C868.869 145 866.369 150.5 866.369 157.7C866.369 165.1 869.269 170.9 875.069 175.1C881.069 179.3 889.869 181.4 901.469 181.4ZM901.169 54.5C918.569 54.5 932.369 58.4 942.569 66.2C952.769 74 957.869 86.3 957.869 103.1V174.2C957.869 178.6 956.969 182 955.169 184.4C953.569 186.6 951.069 188.7 947.669 190.7C942.869 193.3 936.469 195.7 928.469 197.9C920.469 200.1 911.469 201.2 901.469 201.2C882.669 201.2 868.069 197.5 857.669 190.1C847.469 182.7 842.369 172 842.369 158C842.369 145 846.669 135.1 855.269 128.3C864.069 121.3 876.169 117.1 891.569 115.7L934.169 111.5V103.1C934.169 93.1 931.169 85.8 925.169 81.2C919.169 76.6 911.069 74.3 900.869 74.3C892.669 74.3 884.769 75.5 877.169 77.9C869.769 80.3 863.169 83 857.369 86C855.769 84.6 854.269 83 852.869 81.2C851.669 79.2 851.069 77.2 851.069 75.2C851.069 70 853.969 66 859.769 63.2C865.169 60.4 871.369 58.3 878.369 56.9C885.569 55.3 893.169 54.5 901.169 54.5ZM1026.36 166.1C1022.96 159.7 1018.86 151.1 1014.06 140.3C1009.26 129.3 1004.26 117.1 999.06 103.7C994.06 90.1 989.26 76.3 984.66 62.3C986.06 60.3 987.86 58.7 990.06 57.5C992.46 56.3 994.96 55.7 997.56 55.7C1000.96 55.7 1003.76 56.6 1005.96 58.4C1008.16 60.2 1009.96 63.2 1011.36 67.4C1017.36 84.2 1023.66 100.9 1030.26 117.5C1036.86 134.1 1044.16 151.3 1052.16 169.1H1053.36C1057.56 160.7 1061.96 150.2 1066.56 137.6C1071.16 125 1075.56 111.7 1079.76 97.7C1083.96 83.7 1087.46 70.5 1090.26 58.1C1091.66 57.5 1093.16 57 1094.76 56.6C1096.56 56 1098.46 55.7 1100.46 55.7C1103.86 55.7 1106.66 56.6 1108.86 58.4C1111.06 60 1112.16 62.5 1112.16 65.9C1112.16 69.1 1111.26 74.5 1109.46 82.1C1107.66 89.5 1105.16 98.2 1101.96 108.2C1098.96 118 1095.36 128.5 1091.16 139.7C1087.16 150.7 1082.76 161.6 1077.96 172.4C1073.36 183 1068.66 192.6 1063.86 201.2C1054.66 218.2 1046.26 231.2 1038.66 240.2C1031.06 249.4 1024.06 254 1017.66 254C1013.06 254 1009.46 252.8 1006.86 250.4C1004.46 248 1002.96 245.2 1002.36 242C1006.76 238.2 1011.66 233.1 1017.06 226.7C1022.66 220.5 1027.96 213.7 1032.96 206.3C1038.16 199.1 1042.36 192.2 1045.56 185.6C1042.16 184.6 1038.96 182.8 1035.96 180.2C1033.16 177.6 1029.96 172.9 1026.36 166.1Z" fill="#FFFFFA"/>
</svg>
